<svg xmlns="http://www.w3.org/2000/svg" version="1.1" viewBox="0 0 6.0001064659503465 4.6834774559558605"><g transform="matrix(1,0,0,1,3.005155244960517,4.429899505851732)"><g transform="matrix(1,0,0,1,0,0)"><path d=" M -1.9574245047701364 -1.0880144645188468 L -1.954636879471918 -1.181973121092878 L -2.387446435818253 -1.1948139908176505 L -2.3898485384688457 -1.1138496165357725 L -2.5627724489721158 -1.1189800333080258 L -2.550999180425384 -1.5158054233068596 Q -2.54809293277405 -1.6137623205861686 -2.5301130455382506 -1.680258362987111 Q -2.5121331583024515 -1.7467544053880537 -2.4659815546310573 -1.7849025308801219 Q -2.4198299509596635 -1.8230506563721898 -2.3368664563251467 -1.8205892425450394 Q -2.278891966098617 -1.818869218424862 -2.236904340724223 -1.7841087622221656 Q -2.1949167153498292 -1.7493483060194697 -2.1774671625902626 -1.6968077206735572 Q -2.146463337474031 -1.7639178006031933 -2.0990199826561105 -1.7950245214786065 Q -2.0515766278381897 -1.8261312423540197 -1.9706122535563118 -1.8237291397034272 Q -1.8716557961006832 -1.820793236463814 -1.8199778546710477 -1.7417259210319926 Q -1.768299913241412 -1.6626586056001713 -1.7725110067770187 -1.520721060562805 L -1.7855001544431859 -1.0829137033348726 L -1.9574245047701364 -1.0880144645188468 M -2.2382938530039453 -1.467510721710819 Q -2.236633140060326 -1.5234860915847097 -2.2513404497038865 -1.5504340978754994 Q -2.266047759347447 -1.5773821041662888 -2.3090288469291846 -1.5786572944622823 Q -2.339015652218769 -1.57954696211065 -2.3580561438638394 -1.5616037272318997 Q -2.37709663550891 -1.5436604923531492 -2.3779863031572774 -1.5136736870635648 L -2.380032538748523 -1.4447040348975206 L -2.239094553887476 -1.440522596950193 L -2.2382938530039453 -1.467510721710819 M -1.9466891818131673 -1.4498552483464988 Q -1.944939502104711 -1.5088292987493481 -1.960483266189057 -1.5413045415981736 Q -1.9760270302734029 -1.5737797844469992 -2.0280041594420157 -1.575321875037503 Q -2.107968973547574 -1.5776943220998167 -2.1108752211989086 -1.4797374248205077 Q -2.1115276441410447 -1.457747100941479 -2.1111508513185826 -1.436726681650491 L -1.9472229824021878 -1.4318631651727483 L -1.9466891818131673 -1.4498552483464988 M -1.726462754749994 -1.924164252230988 L -1.88053401623706 -2.000623694968848 L -1.8387480417175321 -2.0848254308978262 L -2.2266134848797394 -2.27730763267395 L -2.2683994593992676 -2.193105896744972 L -2.4224707208863334 -2.269565339482832 L -2.1308579625372865 -2.857185964689317 L -1.8540671497494756 -2.719825686747464 L -1.9096336052275715 -2.607855293224887 L -2.0532461437880802 -2.626655260464391 L -2.1154805739235476 -2.5012484197191047 L -2.001718654104609 -2.444792900953359 L -1.9461521986265131 -2.556763294475936 L -1.8314945156593943 -2.499863244066366 L -1.8870609711374902 -2.387892850543789 L -1.7276151307613403 -2.3087662179429804 L -1.6653807006258727 -2.434173058688267 L -1.786914053926827 -2.5469544580208936 L -1.731347598448731 -2.658924851543471 L -1.4348499964009467 -2.511784877437473 L -1.726462754749994 -1.924164252230988 M -1.2837735458466948 -2.703786284452138 L -1.3740687984597608 -2.8501787957207907 L -1.308532616089492 -2.890601670437105 L -1.421795685109597 -3.329482607817788 L -1.5086098487689141 -3.275935423128644 L -1.59890510138198 -3.422327934397297 L -1.1869633836260038 -3.676414575471273 L -0.722111451763319 -3.252307653288282 L -0.65657526939305 -3.292730528004596 L -0.5662800167799841 -3.146338016735944 L -0.9382191297125495 -2.9169250784108867 L -1.0285143823256153 -3.0633175896795395 L -0.9748938694772136 -3.096390850811069 L -1.0363400828698075 -3.1560093283135333 L -1.186137071144708 -3.0636141861048145 L -1.1612889855692772 -2.9814218954490843 L -1.0821348951740173 -3.0302443285480094 L -0.9918396425609513 -2.8838518172793566 L -1.2837735458466948 -2.703786284452138 M -1.2268058329274143 -3.1771705677619524 L -1.1178625687274866 -3.2443670348228384 L -1.2913197970078523 -3.417009989956528 L -1.2268058329274143 -3.1771705677619524 M -0.2821772244955986 -3.199557922441762 L -0.4249193813771207 -3.8115625602091656 L -0.5048391580474532 -3.8151443610082314 L -0.49709351381947364 -3.9879708780578254 L -0.062529728174541 -3.9684948362129058 L -0.07027537240252058 -3.795668319163312 L -0.14420116582257808 -3.7989814849024475 L -0.07868136883576893 -3.518767002402332 L 0.06833890612312832 -3.9626296374044356 L 0.2681383477989595 -3.953675135406771 L 0.3715389625846759 -3.513604331033275 L 0.4591931480384318 -3.7719388888695016 L 0.39126133786864925 -3.7749834195487075 L 0.39900698209662877 -3.947809936598301 L 0.7206840831947169 -3.9333931883820616 L 0.7129384389667371 -3.7605666713324677 L 0.6310206678796465 -3.76423801715151 L 0.4371007655373933 -3.167321715250171 L 0.1723665053169171 -3.179186430397076 L 0.09390728367524726 -3.5280490832267866 L -0.020439955900259932 -3.187827524824822 L -0.2821772244955986 -3.199557922441762 M 0.7321285271198954 -3.079141724368306 L 0.835157347073324 -3.216869943187123 L 0.8968147473584922 -3.170746576114949 L 1.2634837029489345 -3.4372027207358116 L 1.1818076662075432 -3.4983012069872634 L 1.2848364861609718 -3.6360294258060804 L 1.6723972879534572 -3.3461111184952697 L 1.4485283680920098 -2.758032291534063 L 1.5101857683771778 -2.7119089244618886 L 1.4071569484237494 -2.574180705643071 L 1.0572311831689638 -2.835945788896841 L 1.1602600031223924 -2.973674007715658 L 1.2107069669920756 -2.935936707383879 L 1.2436087080440488 -3.0149776805291335 L 1.102677507392236 -3.120402519551247 L 1.0353437116355582 -3.067118751394349 L 1.1098130392527095 -3.011411308047437 L 1.0067842192992809 -2.87368308922862 L 0.7321285271198954 -3.079141724368306 M 1.1933787063746488 -3.199915364445344 L 1.2958741250305128 -3.1232427542474435 L 1.3927947684970445 -3.347963445039443 L 1.1933787063746488 -3.199915364445344 M 1.601251880324846 -2.578392655034196 L 1.6346002661996386 -2.507881059111639 L 2.0260300230517814 -2.6930073550576026 L 1.9926816371769887 -2.7635189509801594 L 2.148168746134422 -2.8370564172681636 L 2.3615129070513636 -2.3859630023277036 Q 2.4132456594981573 -2.2765796291657887 2.3933198876347967 -2.204102297429243 Q 2.3733941157714367 -2.131624965692697 2.271242701165681 -2.083312560515113 Q 2.202539094882164 -2.050819261457623 2.1473047124141704 -2.0717097615325226 Q 2.0920703299461767 -2.092600261607422 2.046066016598105 -2.1571262498088624 Q 2.066050112188968 -2.089143634947302 2.0417881728470766 -2.043376744083159 Q 2.017526233505185 -1.997609853219016 1.9614785546949476 -1.9711021618826425 L 1.9045268810651903 -1.9441669271376179 L 1.9511291126081693 -1.8456314918099421 L 1.7929300191921764 -1.7708113952959845 L 1.7258057040339403 -1.912738581960618 Q 1.69331240497645 -1.9814421882441349 1.6882434206861605 -2.0155494513748056 Q 1.683174436395871 -2.049656714505476 1.7163721936228733 -2.084716077236379 Q 1.7495699508498759 -2.1197754399672815 1.8444894068994715 -2.164667497875656 Q 1.898729096070669 -2.190320102394727 1.9166078493680498 -2.220346760226251 Q 1.9344866026654306 -2.2503734180577744 1.9122543454155687 -2.2973811486728124 L 1.8870292843051488 -2.35071684302449 L 1.7414861183624353 -2.281882354231649 L 1.7748345042372278 -2.211370758309092 L 1.6193473952797948 -2.137833292021088 L 1.4457647713674129 -2.5048551887461916 L 1.601251880324846 -2.578392655034196 M 2.0160181176514937 -2.3376065084769344 Q 2.0386779183100066 -2.2896947830423766 2.066969948505817 -2.27431424249923 Q 2.095261978701627 -2.258933701956084 2.138653730038585 -2.279455785571341 Q 2.1702935487217836 -2.294419804874132 2.177043544782926 -2.326926535764435 Q 2.183793540844069 -2.3594332666547375 2.165836717680719 -2.397401049074576 L 2.132915875214578 -2.467008650177613 L 1.9873727092718643 -2.398174161384772 L 2.0160181176514937 -2.3376065084769344 M 1.7757601681025739 -1.712761174945074 L 1.9477596491940472 -1.7123386772954676 L 1.947528749315774 -1.6183389608850114 L 2.3805274429937273 -1.6172753476159443 L 2.3807583428720003 -1.7112750640264007 L 2.5527578239634736 -1.7108525663767944 L 2.551146437578929 -1.05485454546978 L 2.2421473698041305 -1.055613567410061 L 2.2424544175146 -1.1806131902963062 L 2.379569454137062 -1.2272765242108594 L 2.3799133475727876 -1.367276101843454 L 2.252913730720363 -1.3675880623172914 L 2.252606683009893 -1.2425884394310462 L 2.124607069174378 -1.2429028562865672 L 2.1249141168848475 -1.3679024791728123 L 1.9469146538948345 -1.3683397151125212 L 1.9465707604591085 -1.2283401374799265 L 2.1054548308312757 -1.180949714586981 L 2.105147783120806 -1.0559500917007358 L 1.774148781718029 -1.0567631540380598 L 1.7757601681025739 -1.712761174945074" fill="#2c3792" fill-rule="nonzero"></path></g><g transform="matrix(1,0,0,1,0,0)"><g clip-path="url(#SvgjsClipPath1003)"><g clip-path="url(#bb5cc96e6-8b15-4160-91d0-a812cf38ed559a46ac91-acc2-488f-9480-60ff32185d8f)"><path d=" M 0.6981589355230995 -0.34143117645618837 C 0.5748507610577107 -0.24803673131387782 0.4015144530692436 -0.2691396639254169 0.3109996341692409 -0.38866564272926674 L -0.9154202885807989 -2.0072304883870116 C -1.005892127984648 -2.126713487694708 -0.979373778857724 -2.2993621237447135 -0.8560656043923354 -2.3927135893908704 L -0.6162829953500201 -2.5744738786254917 C -0.4929748208846314 -2.6678683237678027 -0.3196385128961642 -2.646722411660109 -0.2291236939961614 -2.5272394123524133 L 0.9972962287538785 -0.9086745666946683 C 1.0877680681577275 -0.7891485878908182 1.0612497190308035 -0.6165429313369666 0.9379415445654149 -0.523105506698502 Z" fill="#ed1c24" transform="matrix(1,0,0,1,0,0)" fill-rule="nonzero"></path></g><g clip-path="url(#bb5cc96e6-8b15-4160-91d0-a812cf38ed559a46ac91-acc2-488f-9480-60ff32185d8f)"><path d=" M -0.3737496985538583 -2.363272634525485 C -0.3896191892584112 -2.3512572722878256 -0.4106933228695938 -2.348620892332927 -0.42903367707850815 -2.3563565934915562 C -0.4473740312874226 -2.364092294650185 -0.4601942699397745 -2.381024839870125 -0.46266513312856494 -2.4007759031333102 C -0.46513599631735547 -2.420526966396495 -0.4568821011379349 -2.440095891279986 -0.44101261007529646 -2.4521112530446976 C -0.4164805028972379 -2.4706853926230155 -0.38153598559916424 -2.4658555058646114 -0.36296184568608014 -2.441323399003996 C -0.34438770577299593 -2.4167912921433805 -0.3492175920106858 -2.381846774773336 -0.373749698594525 -2.363272634494695" fill="#f78db5" transform="matrix(1,0,0,1,0,0)" fill-rule="nonzero"></path></g><g clip-path="url(#bb5cc96e6-8b15-4160-91d0-a812cf38ed559a46ac91-acc2-488f-9480-60ff32185d8f)"><path d=" M -0.5454527856884792 -2.2331736996677884 C -0.5699611557138904 -2.214599559330169 -0.6048864309654906 -2.2194102029882554 -0.6234605713031097 -2.2439185730136666 C -0.642034711640729 -2.2684269430390778 -0.6372240679826428 -2.303352218290678 -0.6127156979572316 -2.321926358628297 C -0.5882073268140224 -2.340500499127913 -0.553282051647844 -2.335689854849666 -0.5347079117454145 -2.311181484494438 C -0.5161337718429853 -2.28667311413921 -0.5209444161212321 -2.2517478389730314 -0.5454527864764602 -2.233173699070602" fill="#f78db5" transform="matrix(1,0,0,1,0,0)" fill-rule="nonzero"></path></g><g clip-path="url(#bb5cc96e6-8b15-4160-91d0-a812cf38ed559a46ac91-acc2-488f-9480-60ff32185d8f)"><path d=" M -0.7133736771615616 -2.1059543910524 C -0.7378939158120219 -2.0874039878526567 -0.7728095697329749 -2.0922434956846323 -0.791359972932718 -2.1167637343350925 C -0.8099103761324611 -2.1412839729855526 -0.8050708683004855 -2.176199626906506 -0.7805506296500253 -2.194750030106249 C -0.756030390999565 -2.2133004333059922 -0.7211147370786121 -2.2084609254740166 -0.702564333878869 -2.183940686823556 C -0.6840139306791259 -2.159420448173096 -0.6888534385111014 -2.124504794252143 -0.7133736771615616 -2.1059543910524" fill="#f78db5" transform="matrix(1,0,0,1,0,0)" fill-rule="nonzero"></path></g><g clip-path="url(#bb5cc96e6-8b15-4160-91d0-a812cf38ed559a46ac91-acc2-488f-9480-60ff32185d8f)"><path d=" M -0.25185984746154677 -2.194449173633172 C -0.26362412867397067 -2.185505902592624 -0.2784659868667627 -2.18161654841077 -0.2931043723079253 -2.183640920171504 C -0.3077427577490879 -2.1856652919322377 -0.3209720312985701 -2.1934366593743175 -0.32986763298078003 -2.2052370271677875 C -0.34836535361097254 -2.2297354320529506 -0.34351595152724623 -2.264588229646957 -0.31903293642014074 -2.28310631490692 C -0.29454992131303537 -2.301624400166884 -0.25969310337140494 -2.296803980716003 -0.2411546662856887 -2.272336372315324 C -0.22261622919997226 -2.247868763914645 -0.22740766268501034 -2.2130079497265505 -0.25185984746154677 -2.194449173633172" fill="#f78db5" transform="matrix(1,0,0,1,0,0)" fill-rule="nonzero"></path></g><g clip-path="url(#bb5cc96e6-8b15-4160-91d0-a812cf38ed559a46ac91-acc2-488f-9480-60ff32185d8f)"><path d=" M -0.4255399914192445 -2.062802976913937 C -0.45004836144465565 -2.044228836576318 -0.4849736366962558 -2.049039480234404 -0.503547777033875 -2.073547850259815 C -0.5221219173714943 -2.098056220285226 -0.517311273713408 -2.1329814955368263 -0.49280290368799684 -2.1515556358744456 C -0.4682945325447877 -2.1701297763740612 -0.4333692573786092 -2.1653191320958145 -0.4147951174761798 -2.1408107617405863 C -0.3962209775737505 -2.116302391385358 -0.40103162185199737 -2.08137711621918 -0.4255399922072255 -2.0628029763167506" fill="#f78db5" transform="matrix(1,0,0,1,0,0)" fill-rule="nonzero"></path></g><g clip-path="url(#bb5cc96e6-8b15-4160-91d0-a812cf38ed559a46ac91-acc2-488f-9480-60ff32185d8f)"><path d=" M -0.5934608828923269 -1.935626647794702 C -0.609315018514284 -1.9236189631652056 -0.6303708674837838 -1.9209814857600715 -0.6486968951580677 -1.9287077278066445 C -0.6670229228323519 -1.9364339698532174 -0.6798349696063222 -1.95335013136671 -0.6823068613855698 -1.9730840579276494 C -0.6847787531648176 -1.9928179844885885 -0.6765349507783739 -2.0123716231551447 -0.6606808148465035 -2.024379307375453 C -0.6361724446770897 -2.0429415785350296 -0.6012567911736703 -2.0381213131191895 -0.5826945196747623 -2.0136129431588774 C -0.5641322481758544 -1.9891045731985644 -0.5689525131411153 -1.9541889196329405 -0.5934608828618859 -1.9356266478177575" fill="#f78db5" transform="matrix(1,0,0,1,0,0)" fill-rule="nonzero"></path></g><g clip-path="url(#bb5cc96e6-8b15-4160-91d0-a812cf38ed559a46ac91-acc2-488f-9480-60ff32185d8f)"><path d=" M -0.12421074388461961 -2.0299236623562438 C -0.13597633645506635 -2.0210052144826447 -0.15080521252232115 -2.0171308844953764 -0.1654296138829756 -2.0191544372746066 C -0.1800540152436303 -2.0211779900538374 -0.19327371125440473 -2.028933351789499 -0.20217554990769893 -2.0407115158908593 C -0.22068943951623066 -2.0652075372698864 -0.2158485137006132 -2.1000725702361693 -0.19136120225653208 -2.1185979784659286 C -0.16687389081245096 -2.137123386695688 -0.1320065849771146 -2.1322988587107545 -0.11346966222375143 -2.107820262617953 C -0.0949327394703885 -2.0833416665251514 -0.09974086855750364 -2.0484720955330395 -0.12421074388461961 -2.0299236623562438" fill="#f78db5" transform="matrix(1,0,0,1,0,0)" fill-rule="nonzero"></path></g><g clip-path="url(#bb5cc96e6-8b15-4160-91d0-a812cf38ed559a46ac91-acc2-488f-9480-60ff32185d8f)"><path d=" M -0.29011159903847095 -1.9042516156023932 C -0.3059244257064162 -1.891722066431751 -0.32727636114980263 -1.8887224895820385 -0.3459293606281021 -1.8964101875542916 C -0.36458236010640144 -1.9040978855265445 -0.37762027262589193 -1.9212709879134164 -0.3800127857381568 -1.94130373536996 C -0.3824052988504216 -1.9613364828265039 -0.3737783746159896 -1.9810970189201742 -0.3574604695115502 -1.9929612956639344 C -0.33294235290364105 -2.010787708969456 -0.2986701989564877 -2.0057347160755854 -0.28034006243683174 -1.9815908732060445 C -0.26200992591717576 -1.9574470303365041 -0.2663523771491456 -1.9230776196540258 -0.29011159903847106 -1.904251615602393" fill="#f78db5" transform="matrix(1,0,0,1,0,0)" fill-rule="nonzero"></path></g><g clip-path="url(#bb5cc96e6-8b15-4160-91d0-a812cf38ed559a46ac91-acc2-488f-9480-60ff32185d8f)"><path d=" M -0.4638347224923227 -1.7726913778754658 C -0.4756035616785257 -1.763759012782786 -0.4904390562546237 -1.7598683039554204 -0.5050768315318473 -1.76187535574178 C -0.5197146068090711 -1.7638824075281394 -0.5329553122143167 -1.7716227715291581 -0.5418854875077099 -1.783393272417774 C -0.5587700598499666 -1.8079590819096065 -0.5533592647101178 -1.8414585914594306 -0.5295993642032322 -1.8594595610742264 C -0.5058394636963464 -1.8774605306890224 -0.4721258293014494 -1.873602461222126 -0.45304686895770696 -1.8506991633946992 C -0.4441260826421719 -1.8389266420729609 -0.44025062701848716 -1.8240909586855814 -0.44227403576291047 -1.809459536888257 C -0.44429744450733377 -1.7948281150909327 -0.4520537592227949 -1.7816010126154684 -0.4638347224923227 -1.7726913778754658" fill="#fbc9e7" transform="matrix(1,0,0,1,0,0)" fill-rule="nonzero"></path></g><g clip-path="url(#bb5cc96e6-8b15-4160-91d0-a812cf38ed559a46ac91-acc2-488f-9480-60ff32185d8f)"><path d=" M 0.6146067950000198 -1.0588449262562118 C 0.5988183640944587 -1.046111968285563 0.5773533372567794 -1.0429758394121162 0.5585819590889005 -1.0506594668640736 C 0.5398105809210214 -1.058343094316031 0.5267051772974884 -1.0756298255662542 0.5243761743438011 -1.0957787340821938 C 0.5220471713901138 -1.1159276425981335 0.5308633516047778 -1.135748279517156 0.5473868630154024 -1.1475116268215992 C 0.571898952107702 -1.1649621680524886 0.6058418754952628 -1.1597724533871545 0.6240197883895005 -1.1357948099723125 C 0.6421977012837385 -1.1118171665574708 0.6380284161898047 -1.077733853217848 0.6146067950000198 -1.0588449262562118" fill="#fbc9e7" transform="matrix(1,0,0,1,0,0)" fill-rule="nonzero"></path></g><g clip-path="url(#bb5cc96e6-8b15-4160-91d0-a812cf38ed559a46ac91-acc2-488f-9480-60ff32185d8f)"><path d=" M 0.4429037078653988 -0.9287030119023616 C 0.4270760433741325 -0.9162772558693086 0.4057770457044707 -0.9133541681031863 0.38718700132799033 -0.9210564162374346 C 0.36859695695150996 -0.9287586643716832 0.35560637158705277 -0.9458886508197062 0.3532045274235218 -0.9658672774205304 C 0.35080268325999087 -0.9858459040213545 0.3593630352580013 -1.0055667589087793 0.3755978168884737 -1.0174556714600567 C 0.40012406652469235 -1.0354165189646822 0.4345213563322563 -1.0303956536181558 0.4528902889288684 -1.006173529855701 C 0.4712592215254807 -0.9819514060932466 0.4668149164856914 -0.9474748809254343 0.4429037078653988 -0.9287030119023616" fill="#f78db5" transform="matrix(1,0,0,1,0,0)" fill-rule="nonzero"></path></g><g clip-path="url(#bb5cc96e6-8b15-4160-91d0-a812cf38ed559a46ac91-acc2-488f-9480-60ff32185d8f)"><path d=" M 0.2750257958884703 -0.8014837032869726 C 0.25917166026651306 -0.7894760186574763 0.23811581129701342 -0.7868385412523424 0.21978978362272916 -0.7945647832989153 C 0.20146375594844534 -0.8022910253454882 0.18865170917447505 -0.819207186858981 0.18617981739522715 -0.8389411134199201 C 0.18370792561597948 -0.8586750399808594 0.19195172800242344 -0.8782286786474156 0.20780586393429368 -0.8902363628677235 C 0.23231423410370766 -0.9087986340273007 0.26722988760712685 -0.9039783686114606 0.28579215910603484 -0.879469998651148 C 0.3043544306049426 -0.8549616286908353 0.29953416563968194 -0.8200459751252114 0.2750257959189113 -0.8014837033100282" fill="#f78db5" transform="matrix(1,0,0,1,0,0)" fill-rule="nonzero"></path></g><g clip-path="url(#bb5cc96e6-8b15-4160-91d0-a812cf38ed559a46ac91-acc2-488f-9480-60ff32185d8f)"><path d=" M 0.7364966460923315 -0.889892526875437 C 0.720676695416286 -0.8774794285721952 0.6993913109863754 -0.8745647039774582 0.6808167162945524 -0.8822679682798797 C 0.6622421216027294 -0.889971232582301 0.6492669129762922 -0.9070945258079826 0.6468751773098798 -0.9270603828990387 C 0.644483441643467 -0.9470262399900946 0.6530471256189039 -0.9667297048265411 0.669276714107714 -0.9786022069369786 C 0.6937909499636454 -0.996535213503102 0.7281557818306887 -0.9915035040672757 0.7464996733682585 -0.9672951970765187 C 0.7648435649058287 -0.9430868900857616 0.7603921381049092 -0.908642085418979 0.7364966460923319 -0.8898925268754374" fill="#f78db5" transform="matrix(1,0,0,1,0,0)" fill-rule="nonzero"></path></g><g clip-path="url(#bb5cc96e6-8b15-4160-91d0-a812cf38ed559a46ac91-acc2-488f-9480-60ff32185d8f)"><path d=" M 0.5628165021346334 -0.7583322891485098 C 0.5469965514585879 -0.7459191908452678 0.5257111670286774 -0.7430044662505308 0.5071365723368546 -0.7507077305529524 C 0.4885619776450314 -0.7584109948553737 0.4755867690185944 -0.7755342880810552 0.4731950333521817 -0.7955001451721113 C 0.47080329768576923 -0.8154660022631672 0.47936698166120606 -0.8351694670996137 0.49559657015001624 -0.8470419692100513 C 0.5201108060059474 -0.8649749757761747 0.5544756378729909 -0.8599432663403483 0.5728195294105607 -0.8357349593495913 C 0.5911634209481307 -0.8115266523588343 0.5867119941472114 -0.7770818476920516 0.5628165021346336 -0.75833228914851" fill="#f78db5" transform="matrix(1,0,0,1,0,0)" fill-rule="nonzero"></path></g><g clip-path="url(#bb5cc96e6-8b15-4160-91d0-a812cf38ed559a46ac91-acc2-488f-9480-60ff32185d8f)"><path d=" M 0.394981569653859 -0.6311559600292749 C 0.3791616189778133 -0.6187428617260329 0.35787623454790274 -0.6158281371312957 0.33930163985608 -0.6235314014337172 C 0.32072704516425676 -0.6312346657361387 0.3077518365378198 -0.6483579589618202 0.3053601008714071 -0.6683238160528764 C 0.3029683652049946 -0.6882896731439323 0.3115320491804314 -0.7079931379803788 0.3277616376692416 -0.7198656400908163 C 0.352275873525173 -0.7377986466569397 0.3866407053922163 -0.7327669372211134 0.40498459692978606 -0.7085586302303561 C 0.42332848846735605 -0.6843503232395993 0.4188770616664368 -0.6499055185728166 0.3949815696538592 -0.6311559600292749" fill="#f78db5" transform="matrix(1,0,0,1,0,0)" fill-rule="nonzero"></path></g><g clip-path="url(#bb5cc96e6-8b15-4160-91d0-a812cf38ed559a46ac91-acc2-488f-9480-60ff32185d8f)"><path d=" M 0.8641457496692588 -0.7254529745908165 C 0.8482916140473011 -0.7134452899613202 0.8272357650778019 -0.7108078125561861 0.8089097374035177 -0.7185340546027592 C 0.7905837097292339 -0.7262602966493319 0.7777716629552636 -0.7431764581628246 0.7752997711760159 -0.7629103847237639 C 0.7728278793967678 -0.782644311284703 0.7810716817832115 -0.8021979499512593 0.7969258177150818 -0.8142056341715671 C 0.821434187884496 -0.8327679053311443 0.8563498413879156 -0.8279476399153043 0.8749121128868231 -0.8034392699549917 C 0.8934743843857311 -0.7789308999946789 0.8886541194204702 -0.744015246429055 0.8641457496996994 -0.7254529746138718" fill="#f78db5" transform="matrix(1,0,0,1,0,0)" fill-rule="nonzero"></path></g><g clip-path="url(#bb5cc96e6-8b15-4160-91d0-a812cf38ed559a46ac91-acc2-488f-9480-60ff32185d8f)"><path d=" M 0.6982448945154072 -0.5996949688446582 C 0.6737483927852281 -0.5811208287246341 0.6388327388642752 -0.5859218514048643 0.6202585987442508 -0.6104183531350431 C 0.6016844586242265 -0.6349148548652224 0.6064854813044567 -0.6698305087861753 0.6309819830346357 -0.6884046489061997 C 0.655478484764815 -0.7069787890262238 0.6903941386857679 -0.7021777663459938 0.7089682788057923 -0.6776812646158148 C 0.7275424189258164 -0.6531847628856355 0.7227413962455862 -0.6182691089646823 0.6982448945154072 -0.5996949688446582" fill="#f78db5" transform="matrix(1,0,0,1,0,0)" fill-rule="nonzero"></path></g><g clip-path="url(#bb5cc96e6-8b15-4160-91d0-a812cf38ed559a46ac91-acc2-488f-9480-60ff32185d8f)"><path d=" M 0.5245647505577096 -0.46813473111773085 C 0.5000563803673899 -0.4495368540774254 0.4651118625826278 -0.45432825546971944 0.44651398554232236 -0.47883662566003915 C 0.4279161085020169 -0.5033449958503584 0.4327075098943107 -0.5382895136351205 0.45721588008463043 -0.5568873906754264 C 0.48172425027495014 -0.5754852677157314 0.516668768059712 -0.5706938663234378 0.5352666451000174 -0.5461854961331181 C 0.5538645221403229 -0.5216771259427984 0.549073120748029 -0.48673260815803676 0.5245647505577096 -0.46813473111773085" fill="#f78db5" transform="matrix(1,0,0,1,0,0)" fill-rule="nonzero"></path></g><g clip-path="url(#bb5cc96e6-8b15-4160-91d0-a812cf38ed559a46ac91-acc2-488f-9480-60ff32185d8f)"><path d=" M 0.15180358041538966 -0.9446913844715927 C 0.09137440882308012 -0.8988322620754374 0.006275006438461794 -0.9094481976254376 -0.038251751576924065 -0.9682011688677474 L -0.4415283639884757 -1.5004592492369955 C -0.4860551220038617 -1.5592551999754591 -0.47320425265386135 -1.6440107663908463 -0.4127750810615517 -1.6898269092908476 L -0.06025725360769418 -1.9569014983908564 C 0.00017191798461557717 -2.002674661794704 0.08527132036923368 -1.9921017057408577 0.12979807838461976 -1.9333917139947019 L 0.533074690796171 -1.4010906541292998 C 0.5776014488115573 -1.3423806623831442 0.564707599965403 -1.257539136975449 0.5043214078692471 -1.2117659735716015 Z" fill="#fbc9e7" transform="matrix(1,0,0,1,0,0)" fill-rule="nonzero"></path></g><g clip-path="url(#bb5cc96e6-8b15-4160-91d0-a812cf38ed559a46ac91-acc2-488f-9480-60ff32185d8f)"><path d=" M 1.2868061148461956 -1.2938568112254503 C 1.2868061148461956 -1.139173604567753 1.165260099723115 -1.0138024142869797 1.0153476171384948 -1.0138024142869797 L -1.0153476171384943 -1.0138024142869797 C -1.1652600997231144 -1.0138024142869797 -1.2868061148461956 -1.139173604567753 -1.2868061148461956 -1.2938568112254503 L -1.2868061148461956 -1.5947132843023832 C -1.2868061148461956 -1.7493964909600805 -1.1652600997231144 -1.8748106607370076 -1.0153476171384943 -1.8748106607370076 L 1.0153476171384948 -1.8748106607370076 C 1.165260099723115 -1.8748106607370076 1.2868061148461956 -1.7493964909600805 1.2868061148461956 -1.5947132843023832 Z" fill="#f9a72b" transform="matrix(1,0,0,1,0,0)" fill-rule="nonzero"></path></g><g clip-path="url(#bb5cc96e6-8b15-4160-91d0-a812cf38ed559a46ac91-acc2-488f-9480-60ff32185d8f)"><path d=" M -0.97206726451157 -1.6605148929139237 C -0.9720826193570689 -1.640614689561151 -0.9827134400127833 -1.6222343350922315 -0.9999551991650015 -1.6122975312504504 C -1.01719695831722 -1.6023607274086697 -1.0384302225455835 -1.6023771111078087 -1.0556566265953806 -1.6123405107668742 C -1.0728830306451778 -1.6223039104259398 -1.0834854739014266 -1.640700648593754 -1.083470118542312 -1.6606008519461344 C -1.083446381236306 -1.6913639003096326 -1.0584887604549968 -1.716283035635664 -1.0277257120512924 -1.7162592987266176 C -0.9969626636475876 -1.7162355618175715 -0.9720435279994835 -1.6912779413578387 -0.9720672645115391 -1.6605148929538276" fill="#fbc570" transform="matrix(1,0,0,1,0,0)" fill-rule="nonzero"></path></g><g clip-path="url(#bb5cc96e6-8b15-4160-91d0-a812cf38ed559a46ac91-acc2-488f-9480-60ff32185d8f)"><path d=" M -0.97206726451157 -1.445058678694686 C -0.97206726451157 -1.4142956300102751 -0.9970056428425454 -1.3893572516792996 -1.0277686915269564 -1.3893572516792996 C -1.0585317402113672 -1.3893572516792996 -1.0834701185423428 -1.4142956300102751 -1.0834701185423428 -1.445058678694686 C -1.0834701185423428 -1.475821727379097 -1.0585317402113672 -1.5007601057100723 -1.0277686915269564 -1.5007601057100723 C -0.9970056428425454 -1.5007601057100723 -0.97206726451157 -1.475821727379097 -0.97206726451157 -1.445058678694686" fill="#fbc570" transform="matrix(1,0,0,1,0,0)" fill-rule="nonzero"></path></g><g clip-path="url(#bb5cc96e6-8b15-4160-91d0-a812cf38ed559a46ac91-acc2-488f-9480-60ff32185d8f)"><path d=" M -0.97206726451157 -1.2344591475408329 C -0.971504285549581 -1.2141977697448338 -0.9819919711533325 -1.1952298346472858 -0.9994510182097078 -1.184933133651961 C -1.016910065266083 -1.174636432656636 -1.0385843382916757 -1.174636432656636 -1.0560433853480509 -1.1849331336519608 C -1.0735024324044262 -1.1952298346472858 -1.083990118008178 -1.2141977697448336 -1.083427139046189 -1.2344591475408329 C -1.0825894279257302 -1.2646080210183772 -1.05790771125545 -1.2886134619362402 -1.0277472017788793 -1.2886134619362402 C -0.9975866923023087 -1.2886134619362402 -0.9729049756320285 -1.2646080210183772 -0.97206726451157 -1.2344591475408329" fill="#fbc570" transform="matrix(1,0,0,1,0,0)" fill-rule="nonzero"></path></g><g clip-path="url(#bb5cc96e6-8b15-4160-91d0-a812cf38ed559a46ac91-acc2-488f-9480-60ff32185d8f)"><path d=" M -0.7638316056461787 -1.6556582098485386 C -0.7638469604916777 -1.6357580064957657 -0.7744777811473921 -1.6173776520268464 -0.7917195402996103 -1.6074408481850655 C -0.8089612994518287 -1.5975040443432846 -0.8301945636801922 -1.5975204280424236 -0.8474209677299893 -1.6074838277014891 C -0.8646473717797865 -1.6174472273605547 -0.8752498150360354 -1.6358439655283692 -0.8752344596769207 -1.6557441688807493 C -0.8752107223709147 -1.6865072172442477 -0.8502531015896058 -1.711426352570279 -0.819490053185901 -1.7114026156612328 C -0.7887270047821964 -1.7113788787521864 -0.7638078691340922 -1.6864212582924534 -0.7638316056461479 -1.6556582098884425" fill="#fbc570" transform="matrix(1,0,0,1,0,0)" fill-rule="nonzero"></path></g><g clip-path="url(#bb5cc96e6-8b15-4160-91d0-a812cf38ed559a46ac91-acc2-488f-9480-60ff32185d8f)"><path d=" M -0.7638316056461787 -1.4377951438446859 C -0.7632686266841898 -1.4175337660486869 -0.7737563122879413 -1.3985658309511386 -0.7912153593443165 -1.3882691299558139 C -0.8086744064006918 -1.377972428960489 -0.8303486794262844 -1.377972428960489 -0.8478077264826597 -1.3882691299558136 C -0.8652667735390349 -1.3985658309511386 -0.8757544591427866 -1.4175337660486866 -0.8751914801807976 -1.4377951438446859 C -0.874353769060339 -1.46794401732223 -0.8496720523900588 -1.4919494582400932 -0.819511542913488 -1.4919494582400932 C -0.7893510334369174 -1.4919494582400932 -0.7646693167666372 -1.46794401732223 -0.7638316056461787 -1.4377951438446859" fill="#fbc570" transform="matrix(1,0,0,1,0,0)" fill-rule="nonzero"></path></g><g clip-path="url(#bb5cc96e6-8b15-4160-91d0-a812cf38ed559a46ac91-acc2-488f-9480-60ff32185d8f)"><path d=" M -0.7638316056461787 -1.2271526331946787 C -0.7632686266841898 -1.20689125539868 -0.7737563122879413 -1.1879233203011317 -0.7912153593443165 -1.177626619305807 C -0.8086744064006918 -1.1673299183104822 -0.8303486794262844 -1.1673299183104822 -0.8478077264826597 -1.1776266193058067 C -0.8652667735390349 -1.1879233203011317 -0.8757544591427866 -1.2068912553986797 -0.8751914801807976 -1.2271526331946787 C -0.874353769060339 -1.257301506672223 -0.8496720523900588 -1.281306947590086 -0.819511542913488 -1.281306947590086 C -0.7893510334369174 -1.281306947590086 -0.7646693167666372 -1.257301506672223 -0.7638316056461787 -1.2271526331946787" fill="#fbc570" transform="matrix(1,0,0,1,0,0)" fill-rule="nonzero"></path></g><g clip-path="url(#bb5cc96e6-8b15-4160-91d0-a812cf38ed559a46ac91-acc2-488f-9480-60ff32185d8f)"><path d=" M -0.555638926276941 -1.658108041129308 C -0.5556312484795757 -1.6382155153244105 -0.5662366901725722 -1.6198299674334855 -0.583460284051995 -1.6098770555116508 C -0.600683877931418 -1.5999241435898164 -0.6219089503140232 -1.5999159517514467 -0.63914022173416 -1.60985556578282 C -0.6563714931542968 -1.619795179814193 -0.6669911235276271 -1.6381725358668704 -0.666998800811575 -1.6580650616719663 C -0.6670106688854783 -1.6888162415769568 -0.6420915332551338 -1.713754619478646 -0.611340353311474 -1.7137664879494017 C -0.5805891733678141 -1.7137783564201574 -0.5556507951445491 -1.6888592211116369 -0.555638926276956 -1.6581080411681304" fill="#fbc570" transform="matrix(1,0,0,1,0,0)" fill-rule="nonzero"></path></g><g clip-path="url(#bb5cc96e6-8b15-4160-91d0-a812cf38ed559a46ac91-acc2-488f-9480-60ff32185d8f)"><path d=" M -0.555638926276941 -1.4499153617600706 C -0.5556312484795757 -1.430022835955173 -0.5662366901725722 -1.411637288064248 -0.583460284051995 -1.4016843761424136 C -0.600683877931418 -1.391731464220579 -0.6219089503140232 -1.3917232723822093 -0.63914022173416 -1.4016628864135825 C -0.6563714931542968 -1.4116025004449555 -0.6669911235276271 -1.429979856497633 -0.666998800811575 -1.4498723823027286 C -0.6670106688854783 -1.4806235622077193 -0.6420915332551338 -1.5055619401094085 -0.611340353311474 -1.505573808580164 C -0.5805891733678141 -1.5055856770509197 -0.5556507951445491 -1.4806665417423994 -0.555638926276956 -1.449915361798893" fill="#fbc570" transform="matrix(1,0,0,1,0,0)" fill-rule="nonzero"></path></g><g clip-path="url(#bb5cc96e6-8b15-4160-91d0-a812cf38ed559a46ac91-acc2-488f-9480-60ff32185d8f)"><path d=" M -0.555638926276941 -1.2320093162600636 C -0.5556312484795757 -1.212116790455166 -0.5662366901725722 -1.193731242564241 -0.583460284051995 -1.1837783306424066 C -0.600683877931418 -1.173825418720572 -0.6219089503140232 -1.1738172268822022 -0.63914022173416 -1.1837568409135755 C -0.6563714931542968 -1.1936964549449487 -0.6669911235276271 -1.212073810997626 -0.666998800811575 -1.2319663368027218 C -0.6670106688854783 -1.2627175167077123 -0.6420915332551338 -1.2876558946094014 -0.611340353311474 -1.287667763080157 C -0.5805891733678141 -1.2876796315509127 -0.5556507951445491 -1.2627604962423924 -0.555638926276956 -1.2320093162988859" fill="#fbc570" transform="matrix(1,0,0,1,0,0)" fill-rule="nonzero"></path></g><g clip-path="url(#bb5cc96e6-8b15-4160-91d0-a812cf38ed559a46ac91-acc2-488f-9480-60ff32185d8f)"><path d=" M 0.6645919490269445 -1.6605148929139237 C 0.6645765941814457 -1.640614689561151 0.6539457735257312 -1.6222343350922315 0.636704014373513 -1.6122975312504504 C 0.6194622552212945 -1.6023607274086697 0.5982289909929308 -1.6023771111078087 0.5810025869431337 -1.6123405107668742 C 0.5637761828933368 -1.6223039104259398 0.5531737396370879 -1.640700648593754 0.5531890949962024 -1.6606008519461344 C 0.5532128323022085 -1.6913639003096326 0.5781704530835177 -1.716283035635664 0.6089335014872221 -1.7162592987266176 C 0.6396965498909268 -1.7162355618175715 0.664615685539031 -1.6912779413578387 0.6645919490269754 -1.6605148929538276" fill="#fbc570" transform="matrix(1,0,0,1,0,0)" fill-rule="nonzero"></path></g><g clip-path="url(#bb5cc96e6-8b15-4160-91d0-a812cf38ed559a46ac91-acc2-488f-9480-60ff32185d8f)"><path d=" M 0.6645919490269445 -1.445058678694686 C 0.6645919490269445 -1.4143193669305563 0.6396728132718417 -1.3894002311754536 0.608933501507712 -1.3894002311754536 C 0.5781941897435823 -1.3894002311754536 0.5532750539884794 -1.4143193669305563 0.5532750539884794 -1.445058678694686 C 0.5532750539884794 -1.4757979904588157 0.5781941897435823 -1.5007171262139185 0.608933501507712 -1.5007171262139185 C 0.6396728132718417 -1.5007171262139185 0.6645919490269445 -1.4757979904588157 0.6645919490269445 -1.445058678694686" fill="#fbc570" transform="matrix(1,0,0,1,0,0)" fill-rule="nonzero"></path></g><g clip-path="url(#bb5cc96e6-8b15-4160-91d0-a812cf38ed559a46ac91-acc2-488f-9480-60ff32185d8f)"><path d=" M 0.6645919490269445 -1.2344591475408329 C 0.66459962682431 -1.2145666217359352 0.6539941851313134 -1.1961810738450103 0.6367705912518904 -1.1862281619231758 C 0.6195469973724677 -1.1762752500013411 0.5983219249898624 -1.1762670581629715 0.5810906535697258 -1.1862066721943447 C 0.5638593821495888 -1.196146286225718 0.5532397517762584 -1.2145236422783952 0.5532320744923105 -1.234416168083491 C 0.5532202064184073 -1.2651673479884815 0.5781393420487517 -1.2901057258901707 0.6088905219924117 -1.2901175943609262 C 0.6396417019360714 -1.290129462831682 0.6645800801593365 -1.2652103275231616 0.6645919490269294 -1.2344591475796551" fill="#fbc570" transform="matrix(1,0,0,1,0,0)" fill-rule="nonzero"></path></g><g clip-path="url(#bb5cc96e6-8b15-4160-91d0-a812cf38ed559a46ac91-acc2-488f-9480-60ff32185d8f)"><path d=" M 0.872784628396182 -1.6556582098485386 C 0.8727692735506833 -1.6357580064957657 0.8621384528949689 -1.6173776520268464 0.8448966937427502 -1.6074408481850655 C 0.827654934590532 -1.5975040443432846 0.8064216703621683 -1.5975204280424236 0.7891952663123711 -1.6074838277014891 C 0.771968862262574 -1.6174472273605547 0.7613664190063254 -1.6358439655283692 0.7613817743654399 -1.6557441688807493 C 0.761405511671446 -1.6865072172442477 0.7863631324527547 -1.711426352570279 0.8171261808564596 -1.7114026156612328 C 0.8478892292601645 -1.7113788787521864 0.8728083649082685 -1.6864212582924534 0.8727846283962126 -1.6556582098884425" fill="#fbc570" transform="matrix(1,0,0,1,0,0)" fill-rule="nonzero"></path></g><g clip-path="url(#bb5cc96e6-8b15-4160-91d0-a812cf38ed559a46ac91-acc2-488f-9480-60ff32185d8f)"><path d=" M 0.872784628396182 -1.4377951438446859 C 0.8727923061935474 -1.4179026180397882 0.862186864500551 -1.399517070148863 0.8449632706211281 -1.3895641582270286 C 0.8277396767417047 -1.379611246305194 0.8065146043591 -1.3796030544668245 0.7892833329389628 -1.3895426684981975 C 0.7720520615188264 -1.3994822825295707 0.7614324311454959 -1.4178596385822482 0.7614247538615482 -1.4377521643873439 C 0.761412885787645 -1.4685033442923345 0.7863320214179894 -1.4934417221940237 0.8170832013616489 -1.4934535906647792 C 0.8478343813053089 -1.493465459135535 0.8727727595285741 -1.4685463238270147 0.8727846283961669 -1.4377951438835082" fill="#fbc570" transform="matrix(1,0,0,1,0,0)" fill-rule="nonzero"></path></g><g clip-path="url(#bb5cc96e6-8b15-4160-91d0-a812cf38ed559a46ac91-acc2-488f-9480-60ff32185d8f)"><path d=" M 0.872784628396182 -1.2271526331946787 C 0.8727923061935474 -1.207260107389781 0.862186864500551 -1.1888745594988561 0.8449632706211281 -1.1789216475770217 C 0.8277396767417047 -1.168968735655187 0.8065146043591 -1.1689605438168174 0.7892833329389628 -1.1789001578481906 C 0.7720520615188264 -1.1888397718795638 0.7614324311454959 -1.207217127932241 0.7614247538615482 -1.227109653737337 C 0.761412885787645 -1.2578608336423276 0.7863320214179894 -1.2827992115440168 0.8170832013616489 -1.2828110800147723 C 0.8478343813053089 -1.282822948485528 0.8727727595285741 -1.2579038131770075 0.8727846283961669 -1.227152633233501" fill="#fbc570" transform="matrix(1,0,0,1,0,0)" fill-rule="nonzero"></path></g><g clip-path="url(#bb5cc96e6-8b15-4160-91d0-a812cf38ed559a46ac91-acc2-488f-9480-60ff32185d8f)"><path d=" M 1.0810202872615733 -1.658108041129308 C 1.0810279650589387 -1.6382155153244105 1.0704225233659423 -1.6198299674334855 1.0531989294865194 -1.6098770555116508 C 1.0359753356070964 -1.5999241435898164 1.0147502632244914 -1.5999159517514467 0.9975189918043545 -1.60985556578282 C 0.9802877203842177 -1.619795179814193 0.9696680900108872 -1.6381725358668704 0.969660412726939 -1.6580650616719663 C 0.9696485446530363 -1.6888162415769568 0.9945676802833807 -1.713754619478646 1.0253188602270407 -1.7137664879494017 C 1.0560700401707002 -1.7137783564201574 1.0810084183939654 -1.6888592211116369 1.0810202872615582 -1.6581080411681304" fill="#fbc570" transform="matrix(1,0,0,1,0,0)" fill-rule="nonzero"></path></g><g clip-path="url(#bb5cc96e6-8b15-4160-91d0-a812cf38ed559a46ac91-acc2-488f-9480-60ff32185d8f)"><path d=" M 1.0810202872615733 -1.4499153617600706 C 1.0810279650589387 -1.430022835955173 1.0704225233659423 -1.411637288064248 1.0531989294865194 -1.4016843761424136 C 1.0359753356070964 -1.391731464220579 1.0147502632244914 -1.3917232723822093 0.9975189918043545 -1.4016628864135825 C 0.9802877203842177 -1.4116025004449555 0.9696680900108872 -1.429979856497633 0.969660412726939 -1.4498723823027286 C 0.9696485446530363 -1.4806235622077193 0.9945676802833807 -1.5055619401094085 1.0253188602270407 -1.505573808580164 C 1.0560700401707002 -1.5055856770509197 1.0810084183939654 -1.4806665417423994 1.0810202872615582 -1.449915361798893" fill="#fbc570" transform="matrix(1,0,0,1,0,0)" fill-rule="nonzero"></path></g><g clip-path="url(#bb5cc96e6-8b15-4160-91d0-a812cf38ed559a46ac91-acc2-488f-9480-60ff32185d8f)"><path d=" M 1.0810202872615733 -1.2320093162600636 C 1.0810279650589387 -1.212116790455166 1.0704225233659423 -1.193731242564241 1.0531989294865194 -1.1837783306424066 C 1.0359753356070964 -1.173825418720572 1.0147502632244914 -1.1738172268822022 0.9975189918043545 -1.1837568409135755 C 0.9802877203842177 -1.1936964549449487 0.9696680900108872 -1.212073810997626 0.969660412726939 -1.2319663368027218 C 0.9696485446530363 -1.2627175167077123 0.9945676802833807 -1.2876558946094014 1.0253188602270407 -1.287667763080157 C 1.0560700401707002 -1.2876796315509127 1.0810084183939654 -1.2627604962423924 1.0810202872615582 -1.2320093162988859" fill="#fbc570" transform="matrix(1,0,0,1,0,0)" fill-rule="nonzero"></path></g><g clip-path="url(#bb5cc96e6-8b15-4160-91d0-a812cf38ed559a46ac91-acc2-488f-9480-60ff32185d8f)"><path d=" M 0.47604089940001537 -1.2227257450908324 C 0.47604089940001537 -1.1469099138754455 0.4162134407538596 -1.0854492343754434 0.34250360485001097 -1.0854492343754434 L -0.3252688268923184 -1.0854492343754434 C -0.39902164229232073 -1.0854492343754434 -0.4588061214423227 -1.1469099138754455 -0.4588061214423227 -1.2227257450908324 L -0.4588061214423227 -1.665027740010078 C -0.4588061214423227 -1.740800591729311 -0.3990216422923206 -1.802261271229313 -0.3252688268923184 -1.802261271229313 L 0.34250360485001097 -1.802261271229313 C 0.4162134407538596 -1.802261271229313 0.47604089940001537 -1.740800591729311 0.47604089940001537 -1.665027740010078 Z" fill="#fbc570" transform="matrix(1,0,0,1,0,0)" fill-rule="nonzero"></path></g><g clip-path="url(#bb5cc96e6-8b15-4160-91d0-a812cf38ed559a46ac91-acc2-488f-9480-60ff32185d8f)"><path d=" M -0.8201777251038728 -0.3894822531561899 C -0.9516090243423385 -0.4711003163523464 -0.994029787046186 -0.6405254901908135 -0.9149475141231066 -0.7677877783023559 L 0.15618748902308188 -2.4930707129101046 C 0.2352267824500076 -2.620418960013955 0.40589836167693605 -2.6575102651947256 0.5373296609154021 -2.5759351814947227 L 0.7929287245423331 -2.4172119021985634 C 0.9243600237807992 -2.335679797994715 0.9667378069884931 -2.166254624156248 0.8876985135615669 -2.0389063770523976 L -0.18343648958462144 -0.3136234424446487 C -0.262518762507701 -0.18627519534079884 -0.4331473622384756 -0.14922686965618182 -0.5645786614769414 -0.2308019533561847 Z" fill="#2c3792" transform="matrix(1,0,0,1,0,0)" fill-rule="nonzero"></path></g><g clip-path="url(#bb5cc96e6-8b15-4160-91d0-a812cf38ed559a46ac91-acc2-488f-9480-60ff32185d8f)"><path d=" M 0.6827722759000221 -2.1151090237331696 C 0.6580410978099767 -2.1319068967090056 0.6509646008841563 -2.165223573988131 0.6667329057153282 -2.190623579283113 C 0.6825012105464998 -2.216023584578095 0.715499250250589 -2.224462018636019 0.7415252471423317 -2.2097498742639416 C 0.7672442996593536 -2.193351899434975 0.774991279051072 -2.1593183576171247 0.7589036821907449 -2.1334040282195823 C 0.7428160853304178 -2.1074896988220395 0.7088781367203305 -2.099334130018934 0.6827722759000221 -2.1151090237331696" fill="#2383ce" transform="matrix(1,0,0,1,0,0)" fill-rule="nonzero"></path></g><g clip-path="url(#bb5cc96e6-8b15-4160-91d0-a812cf38ed559a46ac91-acc2-488f-9480-60ff32185d8f)"><path d=" M 0.4997226017807854 -2.2287468115639424 C 0.4749914236907402 -2.2455446845397784 0.46791492676491964 -2.2788613618189038 0.4836832315960915 -2.304261367113886 C 0.49945153642726337 -2.329661372408868 0.5324495761313521 -2.3380998064667917 0.5584755730230953 -2.3233876620947145 C 0.5753815331108061 -2.312892454843719 0.5854041579234326 -2.2941752609841997 0.5847680216085753 -2.274286666455738 C 0.5841318852937181 -2.2543980719272767 0.5729336320930758 -2.236359627444345 0.5553915357049874 -2.2269662406195816 C 0.5378494393168991 -2.217572853794818 0.5166285615585235 -2.218251603581995 0.49972260188458395 -2.228746811499504" fill="#2383ce" transform="matrix(1,0,0,1,0,0)" fill-rule="nonzero"></path></g><g clip-path="url(#bb5cc96e6-8b15-4160-91d0-a812cf38ed559a46ac91-acc2-488f-9480-60ff32185d8f)"><path d=" M 0.3207559797961641 -2.339891788617792 C 0.29462163056658364 -2.356151579010401 0.28661671900355423 -2.3905188195189835 0.3028765093961634 -2.4166531687485637 C 0.31913629978877256 -2.4427875179781444 0.35350354029735476 -2.4507924295411736 0.3796378895269352 -2.434532639148564 C 0.4057722387565159 -2.4182728487559553 0.4137771503195451 -2.3839056082473733 0.39751735992693593 -2.3577712590177926 C 0.38125756953432677 -2.3316369097882124 0.3468903290257448 -2.323631998225183 0.3207559797961641 -2.339891788617792" fill="#2383ce" transform="matrix(1,0,0,1,0,0)" fill-rule="nonzero"></path></g><g clip-path="url(#bb5cc96e6-8b15-4160-91d0-a812cf38ed559a46ac91-acc2-488f-9480-60ff32185d8f)"><path d=" M 0.5688336315961722 -1.9407841873331635 C 0.5427165902477318 -1.9570326503537587 0.53469614273013 -1.991364781813997 0.5509111817000178 -2.0175025879677815 C 0.5676497951368602 -2.042411815282129 0.6011042795551051 -2.049598724612706 0.6265962570690586 -2.0337617467566256 C 0.6520882345830121 -2.0179247689005453 0.6604671082472287 -1.9847487433770499 0.6455520322307899 -1.9587066372293178 C 0.6293035692101947 -1.9325895958808776 0.5949714377499566 -1.9245691483632759 0.5688336315961722 -1.9407841873331635" fill="#2383ce" transform="matrix(1,0,0,1,0,0)" fill-rule="nonzero"></path></g><g clip-path="url(#bb5cc96e6-8b15-4160-91d0-a812cf38ed559a46ac91-acc2-488f-9480-60ff32185d8f)"><path d=" M 0.38367796216539696 -2.0557113600485524 C 0.3662983428095046 -2.066010966957095 0.35585140789639835 -2.0849075949635996 0.35637185921708703 -2.10510319353975 C 0.3568923105377759 -2.125298792115901 0.36829868454025116 -2.1436322487242587 0.38618573528400546 -2.153023014780155 C 0.40407278602775976 -2.1624137808360513 0.4256407460213434 -2.1613919683238616 0.44255987189616763 -2.1503522105793245 C 0.4679508458508481 -2.1337845578866625 0.4754452051094391 -2.099961801261506 0.4594292064266994 -2.0742192982692487 C 0.44341320774395987 -2.048476795276991 0.4097600107104904 -2.040254471040628 0.38367796216539674 -2.0557113600485524" fill="#2383ce" transform="matrix(1,0,0,1,0,0)" fill-rule="nonzero"></path></g><g clip-path="url(#bb5cc96e6-8b15-4160-91d0-a812cf38ed559a46ac91-acc2-488f-9480-60ff32185d8f)"><path d=" M 0.20479729917308354 -2.1668133576062476 C 0.1873150274684372 -2.1770181054597604 0.17675153568905277 -2.195909861109466 0.17721177711142477 -2.2161473234143596 C 0.17767201853379655 -2.236384785719253 0.1890834194611235 -2.254776787213846 0.20701153069759703 -2.2641762302931716 C 0.22493964193407034 -2.2735756733724974 0.2465574486873432 -2.2725003960689865 0.26346431142308546 -2.2613682491447125 C 0.28864993236279557 -2.24478504047601 0.2960486991087341 -2.211161210223573 0.28015047109756486 -2.1855376925498935 C 0.2642522430863954 -2.1599141748762136 0.23084008873139794 -2.1516116661250395 0.20479729917308354 -2.1668133576062476" fill="#2383ce" transform="matrix(1,0,0,1,0,0)" fill-rule="nonzero"></path></g><g clip-path="url(#bb5cc96e6-8b15-4160-91d0-a812cf38ed559a46ac91-acc2-488f-9480-60ff32185d8f)"><path d=" M 0.46108403473847637 -1.7626771552716192 C 0.4430436455922213 -1.7726215874181372 0.43196450929823693 -1.7917106891501817 0.43227876460847914 -1.8123079854500608 C 0.43259301991872134 -1.8329052817499396 0.4442493530861855 -1.8516475058187662 0.46258472138205553 -1.8610369488650722 C 0.48092008967792554 -1.8704263919113782 0.5029405693106006 -1.868929881736351 0.519837005980786 -1.8571460878177761 C 0.5441362431565868 -1.8401994848832377 0.5509192164866081 -1.8071976752906227 0.5352735937324271 -1.7820410704525176 C 0.5196279709782461 -1.7568844656144122 0.4870284218992391 -1.7483757898403334 0.46108403473847637 -1.7626771552716192" fill="#2383ce" transform="matrix(1,0,0,1,0,0)" fill-rule="nonzero"></path></g><g clip-path="url(#bb5cc96e6-8b15-4160-91d0-a812cf38ed559a46ac91-acc2-488f-9480-60ff32185d8f)"><path d=" M 0.28418042856924 -1.872446788448546 C 0.2670117039545563 -1.8828212713230934 0.2567474118389803 -1.9016260410027273 0.25730834426640503 -1.92167798242048 C 0.25786927669382953 -1.9417299238382326 0.2691687823720692 -1.9599314684640436 0.286890634574106 -1.9693299233550503 C 0.30461248677614283 -1.978728378246057 0.3260190627186381 -1.9778718960476784 0.3429333998115498 -1.9670876389793182 C 0.36865245232857147 -1.9506896641503517 0.3763994317202899 -1.9166561223325012 0.36031183485996277 -1.8907417929349588 C 0.34422423799963564 -1.8648274635374165 0.3102862893895484 -1.8566718947343106 0.28418042856924 -1.872446788448546" fill="#2383ce" transform="matrix(1,0,0,1,0,0)" fill-rule="nonzero"></path></g><g clip-path="url(#bb5cc96e6-8b15-4160-91d0-a812cf38ed559a46ac91-acc2-488f-9480-60ff32185d8f)"><path d=" M 0.09911071813077243 -1.9873739611639345 C 0.0821970805691834 -1.9978614909490067 0.07216326559081399 -2.0165756864140536 0.07278891426885159 -2.0364670910977165 C 0.07341456294688897 -2.0563584957813794 0.08460462436139138 -2.0744051320458965 0.10214391058783368 -2.0838090065253074 C 0.11968319681427575 -2.0932128810047184 0.14090707297133465 -2.0925453214238843 0.15782071015012655 -2.08205779102146 C 0.18396692698014006 -2.0658454744463004 0.1920199446420059 -2.0315070982910393 0.17580762837461705 -2.005360880891951 C 0.15959531210722844 -1.9792146634928622 0.12525693609893573 -1.971161645204317 0.09911071840397057 -1.9873739609945342" fill="#2383ce" transform="matrix(1,0,0,1,0,0)" fill-rule="nonzero"></path></g><g clip-path="url(#bb5cc96e6-8b15-4160-91d0-a812cf38ed559a46ac91-acc2-488f-9480-60ff32185d8f)"><path d=" M -0.18051388384615974 -0.724722323156201 C -0.19741984372607546 -0.7352098529634217 -0.20744656426427932 -0.7539199524174214 -0.20681707682855754 -0.7738047080479773 C -0.20618758939283577 -0.7936894636785334 -0.1949975281007299 -0.8117279080296609 -0.1774620807927514 -0.8211251336110632 C -0.15992663348477287 -0.8305223591924658 -0.13870985179060957 -0.8298507038701244 -0.12180389213170217 -0.8193631737066371 C -0.0956695432413941 -0.8031508569715942 -0.08762614679196967 -0.7688221018812316 -0.10383846323197843 -0.7426877528517972 C -0.12005077967198718 -0.7165534038223627 -0.1543795346775989 -0.708510007011226 -0.18051388387785794 -0.7247223231758648" fill="#2383ce" transform="matrix(1,0,0,1,0,0)" fill-rule="nonzero"></path></g><g clip-path="url(#bb5cc96e6-8b15-4160-91d0-a812cf38ed559a46ac91-acc2-488f-9480-60ff32185d8f)"><path d=" M -0.3635205784692426 -0.83831713149082 C -0.380426538366882 -0.8488200163649353 -0.3904450670907381 -0.8675443044952997 -0.3898022817858168 -0.8874367376745587 C -0.3891594964808953 -0.9073291708538178 -0.37795305152743797 -0.925367615223684 -0.3604043063326978 -0.9347571632868019 C -0.34285556113795757 -0.9441467113499193 -0.32163058759699004 -0.9434608673699523 -0.30472462792068233 -0.9329579821395704 C -0.278590278899568 -0.9167219283424219 -0.27056612508336686 -0.8823739306630556 -0.28680217848716705 -0.8562395816607697 C -0.30303823189096735 -0.8301052326584843 -0.33738622948578545 -0.8220810784803678 -0.3635205786591458 -0.8383171316087981" fill="#2383ce" transform="matrix(1,0,0,1,0,0)" fill-rule="nonzero"></path></g><g clip-path="url(#bb5cc96e6-8b15-4160-91d0-a812cf38ed559a46ac91-acc2-488f-9480-60ff32185d8f)"><path d=" M -0.5425301799500176 -0.9494621085446697 C -0.5603737385359252 -0.9595014931456569 -0.5712714191335585 -0.9785205893777709 -0.5709097398348422 -0.9989913249351499 C -0.570548060536126 -1.0194620604925286 -0.5589853280940196 -1.0380843235764479 -0.5407982629170638 -1.0474871149930653 C -0.5226111977401079 -1.0568899064096826 -0.500731758389655 -1.0555573908922122 -0.48382018820386186 -1.0440170000831344 C -0.4591818495070574 -1.027203891996553 -0.45216112915453355 -0.993965821696353 -0.46789548837259787 -0.9686249796174791 C -0.4836298475906624 -0.943284137538605 -0.5165340344019723 -0.9348358050501309 -0.5425301799500177 -0.9494621085446697" fill="#2383ce" transform="matrix(1,0,0,1,0,0)" fill-rule="nonzero"></path></g><g clip-path="url(#bb5cc96e6-8b15-4160-91d0-a812cf38ed559a46ac91-acc2-488f-9480-60ff32185d8f)"><path d=" M -0.2944095486538557 -0.5503545072600415 C -0.31189182035850205 -0.5605592551135539 -0.32245531213788636 -0.5794510107632598 -0.3219950707155145 -0.5996884730681531 C -0.3215348292931426 -0.6199259353730464 -0.31012342836581563 -0.6383179368676395 -0.2921953171293423 -0.6477173799469653 C -0.274267205892869 -0.6571168230262914 -0.25264939913959616 -0.6560415457227797 -0.23574253640385368 -0.644909398798506 C -0.21055691546414357 -0.6283261901298038 -0.20315814871820503 -0.5947023598773664 -0.2190563767293745 -0.5690788422036865 C -0.23495460474054353 -0.5434553245300071 -0.2683667590955412 -0.5351528157788326 -0.2944095486538557 -0.5503545072600415" fill="#2383ce" transform="matrix(1,0,0,1,0,0)" fill-rule="nonzero"></path></g><g clip-path="url(#bb5cc96e6-8b15-4160-91d0-a812cf38ed559a46ac91-acc2-488f-9480-60ff32185d8f)"><path d=" M -0.47956521808463104 -0.6652816799754298 C -0.5056995673142115 -0.6815414703680389 -0.5137044788772407 -0.7159087108766209 -0.4974446884846315 -0.7420430601062016 C -0.48118489809202236 -0.768177409335782 -0.4468176575834404 -0.7761823208988112 -0.4206833083538599 -0.7599225305062021 C -0.39454895912427923 -0.7436627401135929 -0.38654404756125016 -0.7092954996050109 -0.4028038379538593 -0.6831611503754305 C -0.4190636283464684 -0.65702680114585 -0.45343086885505046 -0.6490218895828208 -0.47956521808463104 -0.6652816799754298" fill="#2383ce" transform="matrix(1,0,0,1,0,0)" fill-rule="nonzero"></path></g><g clip-path="url(#bb5cc96e6-8b15-4160-91d0-a812cf38ed559a46ac91-acc2-488f-9480-60ff32185d8f)"><path d=" M -0.6584458810769445 -0.7763836775331256 C -0.675614605691628 -0.7867581604076732 -0.6858788978072041 -0.8055629300873071 -0.6853179653797794 -0.8256148715050597 C -0.6847570329523549 -0.8456668129228122 -0.6734575272741151 -0.8638683575486235 -0.6557356750720785 -0.8732668124396299 C -0.6380138228700418 -0.8826652673306365 -0.6166072469275464 -0.881808785132258 -0.5996929098346349 -0.8710245280638982 C -0.5739738573176131 -0.8546265532349315 -0.5662268779258947 -0.8205930114170807 -0.5823144747862219 -0.7946786820195384 C -0.5984020716465489 -0.768764352621996 -0.632340020256636 -0.7606087838188904 -0.6584458810769445 -0.7763836775331256" fill="#2383ce" transform="matrix(1,0,0,1,0,0)" fill-rule="nonzero"></path></g><g clip-path="url(#bb5cc96e6-8b15-4160-91d0-a812cf38ed559a46ac91-acc2-488f-9480-60ff32185d8f)"><path d=" M -0.40220212500770536 -0.3721185367100359 C -0.4283483426974265 -0.38835459018236396 -0.43638211812426475 -0.42271220940300935 -0.4201460646519367 -0.4488584270927305 C -0.4039100111796088 -0.4750046447824521 -0.36955239195896306 -0.4830384202092901 -0.3434061742692419 -0.4668023667369616 C -0.3172599565795208 -0.45056631326463403 -0.30922618115268263 -0.4162086940439882 -0.32546223462501056 -0.39006247635426705 C -0.3416982880973385 -0.3639162586645459 -0.3760559073179842 -0.35588248323770744 -0.40220212500770536 -0.3721185367100359" fill="#2383ce" transform="matrix(1,0,0,1,0,0)" fill-rule="nonzero"></path></g><g clip-path="url(#bb5cc96e6-8b15-4160-91d0-a812cf38ed559a46ac91-acc2-488f-9480-60ff32185d8f)"><path d=" M -0.579062751680788 -0.48201710837542366 C -0.5972257571801893 -0.49187997713872766 -0.6084344716904961 -0.5109889045319456 -0.6081790849476773 -0.5316554409283771 C -0.6079236982048584 -0.5523219773248087 -0.5962462014219856 -0.5711480883405984 -0.5778450187404863 -0.5805591151143101 C -0.5594438360589871 -0.5899701418880223 -0.5373445277496248 -0.5884187040579438 -0.5204387189269399 -0.5765290204177345 C -0.4962967768634037 -0.5595502377634234 -0.48958956705608303 -0.5266876141385648 -0.5051470956134241 -0.501606231955579 C -0.5207046241707652 -0.4765248497725927 -0.5531254995170317 -0.46793267096332913 -0.579062751680788 -0.48201710837542366" fill="#2383ce" transform="matrix(1,0,0,1,0,0)" fill-rule="nonzero"></path></g><g clip-path="url(#bb5cc96e6-8b15-4160-91d0-a812cf38ed559a46ac91-acc2-488f-9480-60ff32185d8f)"><path d=" M -0.7641754416154094 -0.5969442810908121 C -0.7814001104267195 -0.6073092246430356 -0.7917034640728745 -0.6261511880096995 -0.7911350633421401 -0.6462459184410689 C -0.7905666626114056 -0.6663406488724384 -0.7792147056286093 -0.684570068844812 -0.7614316797036952 -0.6939447826779876 C -0.7436486537787811 -0.7033194965111633 -0.7221939317547562 -0.7023848400286701 -0.7052935318846382 -0.6914991726292765 C -0.6797096264752563 -0.6750203977361167 -0.6720864464437777 -0.6410589445457413 -0.6881729567320779 -0.6152265922579603 C -0.7042594670203781 -0.5893942399701788 -0.7381006563462362 -0.5812537804250537 -0.7641754416154093 -0.5969442810908121" fill="#2383ce" transform="matrix(1,0,0,1,0,0)" fill-rule="nonzero"></path></g><g clip-path="url(#bb5cc96e6-8b15-4160-91d0-a812cf38ed559a46ac91-acc2-488f-9480-60ff32185d8f)"><path d=" M -0.45300388946155323 -1.1157497791639062 C -0.5174301541961707 -1.1557636900831383 -0.5380603123500175 -1.2390149741331409 -0.4991638683307855 -1.301593120533143 L -0.14694689735000477 -1.8689224697639306 C -0.1080504533307729 -1.9316295546523943 -0.024326394823077857 -1.9499817995100872 0.0400998699115398 -1.910010868087009 L 0.415826625288475 -1.6767181629639243 C 0.48025289002309246 -1.6367042520446922 0.5009260276730931 -1.5534959474908434 0.46202958365386126 -1.4908748215946874 L 0.10981261267308051 -0.9235454723638998 C 0.07091616865384842 -0.86088136697159 -0.012893848846154299 -0.8424861426177432 -0.0772771340846179 -0.8825000535369754 Z" fill="#2383ce" transform="matrix(1,0,0,1,0,0)" fill-rule="nonzero"></path></g></g></g></g><defs><clipPath id="SvgjsClipPath1003"><path d=" M -1.2868061148461956 -2.632736600800842 h 2.573612229692391 v 2.445236600800842 h -2.573612229692391 Z"></path></clipPath><clipPath id="bb5cc96e6-8b15-4160-91d0-a812cf38ed559a46ac91-acc2-488f-9480-60ff32185d8f"><path d=" M -1.329785611000043 -2.6757335715639567 L 1.3297856110000432 -2.6757335715639567 L 1.3297856110000432 -0.1444991250792591 L -1.329785611000043 -0.1444991250792591 Z"></path></clipPath></defs></svg>
